<svg preserveAspectRatio="none" width="100%" height="100%" overflow="visible" style="display: block;" viewBox="-8 -11.07 90.1406 90.1406" fill="none" xmlns="http://www.w3.org/2000/svg">
<rect x="-8" y="-11.07" width="90.1406" height="90.1406" rx="14" fill="#ffffff"/>
<g id="Group 3" filter="url(#bolden)">
<g id="Group 2" filter="url(#filter0_d_0_4)">
<g id="Vector 9">
<path d="M24.9984 5.11725L24.8117 5.98399C24.7389 6.32174 24.6997 6.66585 24.6946 7.01131L24.6896 7.35021C24.6846 7.6896 24.7344 8.02758 24.8369 8.35114C25.0209 8.93142 25.3686 9.44616 25.8383 9.83341L26.2476 10.1708L27.8333 11.1083L28.1248 11.2594C29.1387 11.7852 30.1886 12.2384 31.2667 12.6155L31.7286 12.7771C32.1571 12.927 32.607 13.0068 33.061 13.0135L33.3923 13.0184C33.6268 13.0219 33.8603 12.9875 34.0839 12.9166C34.7386 12.7091 35.2573 12.2054 35.4841 11.5572L35.5707 11.3095C35.5909 11.2519 35.6151 11.1957 35.6432 11.1415L35.8825 10.6802C35.9953 10.4626 35.9563 10.1972 35.7855 10.0214C35.6803 9.91303 35.5364 9.85091 35.3854 9.84868L34.7074 9.83867C34.1064 9.8298 33.5158 9.68113 32.9822 9.40444L32.8864 9.35478L32.3023 9.05186C32.0884 8.94092 31.8938 8.79622 31.7259 8.62333L31.4845 8.37471C31.2249 8.10728 31.0821 7.74765 31.0876 7.37494L31.0883 7.32558C31.091 7.13987 31.137 6.95735 31.2225 6.79247C31.4311 6.39019 31.8491 6.14031 32.3022 6.147L32.4767 6.14957L32.9337 6.15631L33.8475 6.1698L35.6752 6.19678L38.4167 6.23724L37.3483 5.50195C37.1678 5.37776 37.0614 5.17159 37.0646 4.95255C37.0657 4.88213 37.0553 4.81201 37.0341 4.74488L36.8269 4.09154C36.6959 3.67817 36.5103 3.28413 36.2751 2.91981L36.0015 2.49598C35.8249 2.22231 35.6216 1.96676 35.3947 1.73305L35.2601 1.59444C34.9789 1.3048 34.6528 1.06239 34.2944 0.876537C34.0512 0.750374 33.7948 0.651216 33.5299 0.580833L32.9686 0.431659C32.3967 0.279678 31.8083 0.198411 31.2166 0.189679L31.014 0.186689C30.2271 0.175076 29.4453 0.31371 28.7104 0.595154L28.5359 0.661996C27.8687 0.917495 27.2605 1.30584 26.7479 1.80348C26.3411 2.19843 26.0007 2.65638 25.7397 3.1597L25.6183 3.39373C25.336 3.93814 25.1275 4.51775 24.9984 5.11725Z" fill="url(#paint0_radial_0_4)"/>
<path d="M20.8581 19.2318L18.0222 23.1773L23.6536 24.9711L24.8356 20.2598C24.9193 19.9261 25.0944 19.6224 25.3412 19.3828L25.5631 19.1673C25.7731 18.9635 26.0553 18.8514 26.3479 18.8558C26.6405 18.8601 26.9193 18.9804 27.1232 19.1904L27.5315 19.6109C27.647 19.7299 27.7505 19.86 27.8404 19.9993L28.5988 21.1741L28.9667 21.7439C29.3163 22.2855 29.7186 22.7913 30.1677 23.2538L30.5601 23.658C30.7482 23.8518 30.955 24.0265 31.1775 24.1795C31.8444 24.6385 32.6322 24.8898 33.4417 24.9017L33.571 24.9036L34.9418 24.9239L36.7695 24.9509L37.1536 24.9565C37.8102 24.9662 38.4666 24.9216 39.1159 24.8232L40.4954 24.6142C40.756 24.5747 41.0093 24.4965 41.2467 24.3821L41.5102 24.2552C41.7068 24.1605 41.9227 24.1129 42.1409 24.1161L42.3999 24.1199C42.6067 24.123 42.8039 24.2081 42.9481 24.3565C43.0922 24.5049 43.2894 24.5901 43.4962 24.5931L44.087 24.6018L45.0008 24.6153L46.0485 24.6308C46.2554 24.6338 46.455 24.5546 46.6034 24.4105C46.7519 24.2663 46.837 24.0691 46.84 23.8623L46.8507 23.1377C46.8538 22.9308 46.7745 22.7312 46.6304 22.5828C46.4863 22.4343 46.2891 22.3492 46.0822 22.3462L45.0346 22.3307L44.1207 22.3172L43.53 22.3085C43.3231 22.3054 43.1235 22.3847 42.975 22.5288C42.8266 22.6729 42.627 22.7522 42.4201 22.7491L42.1524 22.7452C41.9456 22.7421 41.7484 22.657 41.6043 22.5086C41.4601 22.3601 41.2631 22.275 41.0562 22.272L40.9222 22.27L38.1807 22.2295L37.8058 22.224C37.1444 22.2142 36.4867 22.1234 35.8473 21.9535L35.3875 21.8313C35.1226 21.7609 34.8663 21.6618 34.623 21.5356C34.2646 21.3498 33.9385 21.1073 33.6573 20.8177L33.5886 20.7469C33.3184 20.4687 33.0866 20.1556 32.8991 19.8161L31.401 17.1022L30.2125 15.4678C30.1091 15.3256 29.9958 15.191 29.8734 15.065C29.4045 14.5821 28.872 14.0746 28.2157 13.9253C28.0178 13.8803 27.7448 13.8491 27.3359 13.8431C27.1448 13.8403 26.7359 13.9175 26.3454 14.013C25.774 14.1527 25.2622 14.4471 24.7864 14.793C24.035 15.3395 23.3651 15.9899 22.7967 16.7249L22.2558 17.4243L20.8581 19.2318Z" fill="url(#paint1_radial_0_4)"/>
</g>
<g id="Vector 10" filter="url(#filter1_ii_0_4)">
<path d="M24.1579 28.0292L21.7895 31.0583L20.7004 30.1877C20.1658 29.7604 19.5756 29.4077 18.946 29.1392L18.708 29.0378C17.9282 28.7054 17.0894 28.534 16.2418 28.534C15.5245 28.534 14.792 28.6302 14.1993 29.0343C13.8374 29.2811 13.4646 29.6192 13.2632 30.0486L13.1554 30.3931C13.0698 30.6667 13.0263 30.9517 13.0263 31.2384V31.2913C13.0263 31.472 13.047 31.652 13.0879 31.828C13.2691 32.6077 13.8317 33.2433 14.5836 33.5178L17.5263 34.5923L20.3684 35.6021L21.8433 36.263C22.3611 36.495 22.8564 36.7742 23.323 37.097L23.4179 37.1627C23.8589 37.4678 24.2685 37.816 24.6407 38.2022C25.2368 38.8208 25.7306 39.5305 26.1034 40.3044L26.216 40.5381C26.4138 40.9485 26.5673 41.3789 26.674 41.8218C26.8888 42.7135 26.9102 43.641 26.7366 44.5417L26.696 44.7526C26.5748 45.381 26.3729 45.9912 26.0951 46.5678L26.0777 46.6037C25.7219 47.3423 25.2506 48.0195 24.6818 48.6099L24.567 48.7289C24.2436 49.0646 23.8938 49.3739 23.5211 49.6539L23.5007 49.6692C22.9929 50.0507 22.4464 50.3777 21.8702 50.645L21.6486 50.7478L17.3439 52.1664C17.1501 52.2303 16.9621 52.3107 16.7819 52.4067L16.5768 52.516C16.266 52.6816 15.9938 52.9113 15.7784 53.1899C15.4821 53.573 15.0847 53.8859 14.6061 53.959C14.2654 54.011 13.8555 54.0238 13.3858 53.936C12.9871 53.8615 12.6445 53.6225 12.367 53.3267L12.291 53.2458C11.721 52.6382 11.5222 51.7707 11.7709 50.9755C11.8182 50.8241 11.881 50.678 11.9583 50.5395L11.9664 50.5251C12.2499 50.0168 12.7038 49.625 13.248 49.4186L13.2916 49.4021C13.586 49.2905 13.8982 49.2333 14.213 49.2333H14.225C14.5289 49.2333 14.8306 49.2853 15.1169 49.387L15.1484 49.3982C15.7674 49.6181 16.4432 49.6181 17.0621 49.3982L17.5263 49.2333L18.7893 48.6948C19.5218 48.3825 20.2016 47.9586 20.8043 47.4381L20.9672 47.2975C21.4191 46.9072 21.8126 46.4538 22.1353 45.9514L22.3442 45.6262C22.5282 45.3398 22.67 45.0285 22.7653 44.7017L22.7998 44.5833C23.0611 43.6873 22.9275 42.7224 22.4326 41.9312C22.3199 41.7511 22.1899 41.5823 22.0446 41.4274L21.9114 41.2855C21.517 40.8651 21.0563 40.5123 20.5475 40.2412L20.0085 39.954C19.6174 39.7456 19.2114 39.5664 18.7938 39.4181L16.5789 38.6312L14.0605 37.9601C13.2201 37.7362 12.4273 37.3618 11.7205 36.8551L11.328 36.5736C10.444 35.9398 9.76453 35.0613 9.3733 34.0462C9.12655 33.4061 9 32.7259 9 32.0398V31.6658C9 30.9302 9.13239 30.2007 9.39084 29.512C9.75587 28.5394 10.3621 27.6755 11.1526 27.0015L11.2591 26.9107C11.9561 26.3164 12.768 25.872 13.6442 25.6052L13.9014 25.5269C15.0403 25.18 16.2426 25.093 17.4196 25.2722L17.9665 25.3555C18.6189 25.4549 19.2604 25.6161 19.8823 25.837L20.2406 25.9643C21.2698 26.33 22.2541 26.8117 23.1743 27.4001L24.1579 28.0292Z" fill="url(#paint2_radial_0_4)"/>
</g>
<g id="Ellipse 10" filter="url(#filter2_ii_0_4)">
<path d="M45 37.5C45 42.1944 40.9706 46 36 46C31.0294 46 27 42.1944 27 37.5C27 32.8056 31.0294 29 36 29C40.9706 29 45 32.8056 45 37.5ZM30.847 37.5C30.847 40.1878 33.1541 42.3667 36 42.3667C38.8459 42.3667 41.153 40.1878 41.153 37.5C41.153 34.8122 38.8459 32.6333 36 32.6333C33.1541 32.6333 30.847 34.8122 30.847 37.5Z" fill="url(#paint3_radial_0_4)"/>
</g>
<path id="Subtract" d="M53.8926 26.75C54.5591 26.75 55.2236 26.834 55.8691 27L55.9111 27.0107C56.7805 27.2343 57.6044 27.6086 58.3447 28.1162L58.417 28.166C58.7883 28.4206 59.1334 28.7114 59.4473 29.0342L59.6924 29.2861C60.3793 29.9926 60.865 30.8719 61.0977 31.8291C61.2587 32.4918 61.2952 33.1802 61.2051 33.8564C61.128 34.4339 60.9593 34.9958 60.7061 35.5205L60.6523 35.6328L60.6504 35.6367L60.5283 35.8828C60.221 36.5046 59.9125 36.8954 59.457 37.3213L59.2529 37.5068L59.2334 37.5234C59.1454 37.6012 58.9925 37.736 58.8369 37.8643C58.7879 37.9047 58.7311 37.9469 58.6738 37.9912L60.4121 38.7959L60.4297 38.8047L60.4463 38.8135L60.6562 38.9316C62.3333 39.8714 63.8731 41.0372 65.2324 42.3965L65.4629 42.627C66.3349 43.499 67.0969 44.4747 67.7314 45.5322C68.1282 46.1935 68.4735 46.8845 68.7646 47.5986L68.9238 47.9883C69.2918 48.8909 69.5946 49.819 69.8311 50.7646L69.9854 51.3789L70.1406 52H66.5967L66.5117 51.6055H66.5107V51.6035C66.5104 51.6018 66.5095 51.5992 66.5088 51.5957C66.5072 51.5886 66.505 51.5775 66.502 51.5635C66.4958 51.5356 66.4864 51.4946 66.4746 51.4424C65.992 49.2947 64.8772 47.3658 63.4971 45.5732L63.0723 45.1211C62.4542 44.4632 61.7672 43.8737 61.0234 43.3623L60.7139 43.1494C60.268 42.8429 59.7941 42.5793 59.2988 42.3613C57.6923 41.6545 55.8949 41.4894 54.1064 41.6904C53.934 41.7098 53.7624 41.7236 53.5967 41.7373L57.1133 50.7334C57.3218 51.2669 57.5087 51.9304 57.457 52.4736C57.4305 52.7524 57.3338 53.0756 57.0625 53.3027C56.7836 53.5363 56.4241 53.5823 56.0645 53.5273C55.7654 53.4816 55.2322 53.3263 54.7529 53.1279C54.5104 53.0275 54.2619 52.9079 54.0537 52.7744C53.8685 52.6556 53.6242 52.47 53.5117 52.207L42.9189 27.4463L42.6211 26.75H53.8926ZM48.9854 30L49.1523 30.3564L51.5059 35.3564L51.5732 35.5H54.2725C54.8057 35.5 55.3323 35.3793 55.8125 35.1475L55.8496 35.1299C56.0134 35.0507 56.17 34.9573 56.3174 34.8506L56.3906 34.7979C56.5727 34.666 56.7358 34.5095 56.875 34.333C57.0445 34.1181 57.1763 33.8759 57.2656 33.6172L57.3379 33.4092C57.536 32.8351 57.5359 32.2108 57.3379 31.6367L57.3037 31.5381C57.1864 31.1981 56.9901 30.8904 56.7314 30.6406C56.3059 30.2297 55.7371 30 55.1455 30H48.9854Z" fill="url(#paint4_radial_0_4)"/>
<circle id="Ellipse 15" cx="55.5" cy="52.5" r="2.5" fill="var(--fill-0, #0169D8)"/>
</g>
<g id="Ellipse 16" filter="url(#filter3_d_0_4)">
<path d="M55.5 45C57.5 45 59.7632 46.1053 60.9227 47.3189C62.0822 48.5324 62.8011 50.0998 62.9644 51.7702C63.1277 53.4407 62.726 55.1176 61.8235 56.5327C60.9211 57.9479 59.57 59.0194 57.9865 59.5758C56.4031 60.1323 54.6787 60.1415 53.0893 59.602C51.5 59.0626 50.1376 58.0056 49.22 56.6002C48.3024 55.1948 47.8828 53.5222 48.0282 51.8501C48.1736 50.1781 49.3536 47.7259 50.5 46.5L51.562 48.8172C50.7378 49.6985 50.2331 50.8308 50.1285 52.0328C50.024 53.2349 50.3256 54.4373 50.9853 55.4476C51.6449 56.458 52.6244 57.2178 53.767 57.6057C54.9096 57.9935 56.1492 57.9869 57.2876 57.5868C58.4259 57.1868 59.3972 56.4165 60.046 55.3991C60.6948 54.3818 60.9836 53.1762 60.8662 51.9754C60.7488 50.7745 60.2319 49.6477 59.3984 48.7753C58.5649 47.9029 57.4628 47.3353 56.2685 47.1633L55.5 45Z" fill="url(#paint5_linear_0_4)"/>
</g>
<g id="Ellipse 17" filter="url(#filter4_d_0_4)">
<path d="M22 52C22 52 21.8174 53.8549 20.9582 55.311C20.0989 56.7672 18.7733 57.8902 17.1964 58.4982C15.6194 59.1061 13.8835 59.1634 12.27 58.6606C10.6565 58.1578 9.25995 57.1244 8.30679 55.728C7.35363 54.3316 6.8997 52.654 7.01859 50.9672C7.13748 49.2803 7.82222 47.6831 8.96181 46.4344C10.1014 45.1857 11.629 44.3587 13.2971 44.0875C14.9652 43.8163 17.9822 44.3521 19.5 46.4344L18 47.5C17.5 47 16.2053 45.5601 13.5 46C12.3008 46.195 11.3378 46.9593 10.5186 47.857C9.69933 48.7547 9.20707 49.9029 9.1216 51.1156C9.03613 52.3283 9.36246 53.5343 10.0477 54.5382C10.7329 55.542 11.7369 56.2849 12.8968 56.6464C14.0568 57.0078 15.3048 56.9667 16.4384 56.5296C17.5721 56.0926 18.5251 55.2852 19.1428 54.2384C19.7605 53.1916 19.5 52.5 19.5 52.5L22 52Z" fill="url(#paint6_linear_0_4)"/>
</g>
<g id="Ellipse 18" filter="url(#filter5_d_0_4)">
<path d="M21.828 43.9314C20.4453 42.4829 18.7039 41.4676 16.8001 41C14.8963 40.5324 12.9056 40.631 11.0524 41.2848C9.19924 41.9386 7.55713 43.1215 6.31111 44.7003C5.06508 46.2792 4.26465 48.1911 4 50.2208L6.60491 50.5936C6.8033 49.0721 7.40331 47.6389 8.33734 46.4554C9.27137 45.2719 10.5141 44.1717 11.9033 43.6816C13.2925 43.1915 14.5729 43.1495 16 43.5C17.4271 43.8505 18.9635 44.9141 20 46L21.828 43.9314Z" fill="url(#paint7_linear_0_4)"/>
</g>
<g id="Ellipse 19" filter="url(#filter6_d_0_4)">
<path d="M65.5 52.1747C65.2192 49.3384 64.083 46.8355 62 45C59.917 43.1645 57.2154 42.3041 54.5 42.5L55.5 44.6075C57.5355 44.4606 59.2675 45.2987 60.8289 46.6747C62.3903 48.0506 63.1184 50.0486 63.3289 52.1747L65.5 52.1747Z" fill="url(#paint8_linear_0_4)"/>
</g>
</g>
<defs>
<filter id="bolden" x="-20%" y="-20%" width="140%" height="140%">
<feMorphology operator="dilate" radius="0.7" in="SourceGraphic"/>
</filter>
<filter id="filter0_d_0_4" x="5" y="0.186015" width="69.1406" height="62.814" filterUnits="userSpaceOnUse" color-interpolation-filters="sRGB">
<feFlood flood-opacity="0" result="BackgroundImageFix"/>
<feColorMatrix in="SourceAlpha" type="matrix" values="0 0 0 0 0 0 0 0 0 0 0 0 0 0 0 0 0 0 127 0" result="hardAlpha"/>
<feOffset dy="4"/>
<feGaussianBlur stdDeviation="2"/>
<feComposite in2="hardAlpha" operator="out"/>
<feColorMatrix type="matrix" values="0 0 0 0 0 0 0 0 0 0 0 0 0 0 0 0 0 0 0.25 0"/>
<feBlend mode="normal" in2="BackgroundImageFix" result="effect1_dropShadow_0_4"/>
<feBlend mode="normal" in="SourceGraphic" in2="effect1_dropShadow_0_4" result="shape"/>
</filter>
<filter id="filter1_ii_0_4" x="7" y="23.1815" width="22.8527" height="33.8185" filterUnits="userSpaceOnUse" color-interpolation-filters="sRGB">
<feFlood flood-opacity="0" result="BackgroundImageFix"/>
<feBlend mode="normal" in="SourceGraphic" in2="BackgroundImageFix" result="shape"/>
<feColorMatrix in="SourceAlpha" type="matrix" values="0 0 0 0 0 0 0 0 0 0 0 0 0 0 0 0 0 0 127 0" result="hardAlpha"/>
<feOffset dx="-2" dy="-2"/>
<feGaussianBlur stdDeviation="3"/>
<feComposite in2="hardAlpha" operator="arithmetic" k2="-1" k3="1"/>
<feColorMatrix type="matrix" values="0 0 0 0 0.917647 0 0 0 0 0.964706 0 0 0 0 1 0 0 0 0.3 0"/>
<feBlend mode="normal" in2="shape" result="effect1_innerShadow_0_4"/>
<feColorMatrix in="SourceAlpha" type="matrix" values="0 0 0 0 0 0 0 0 0 0 0 0 0 0 0 0 0 0 127 0" result="hardAlpha"/>
<feOffset dx="3" dy="3"/>
<feGaussianBlur stdDeviation="4"/>
<feComposite in2="hardAlpha" operator="arithmetic" k2="-1" k3="1"/>
<feColorMatrix type="matrix" values="0 0 0 0 0 0 0 0 0 0.372549 0 0 0 0 0.8 0 0 0 0.25 0"/>
<feBlend mode="normal" in2="effect1_innerShadow_0_4" result="effect2_innerShadow_0_4"/>
</filter>
<filter id="filter2_ii_0_4" x="25" y="27" width="23" height="22" filterUnits="userSpaceOnUse" color-interpolation-filters="sRGB">
<feFlood flood-opacity="0" result="BackgroundImageFix"/>
<feBlend mode="normal" in="SourceGraphic" in2="BackgroundImageFix" result="shape"/>
<feColorMatrix in="SourceAlpha" type="matrix" values="0 0 0 0 0 0 0 0 0 0 0 0 0 0 0 0 0 0 127 0" result="hardAlpha"/>
<feOffset dx="-2" dy="-2"/>
<feGaussianBlur stdDeviation="3"/>
<feComposite in2="hardAlpha" operator="arithmetic" k2="-1" k3="1"/>
<feColorMatrix type="matrix" values="0 0 0 0 0.917647 0 0 0 0 0.964706 0 0 0 0 1 0 0 0 1 0"/>
<feBlend mode="normal" in2="shape" result="effect1_innerShadow_0_4"/>
<feColorMatrix in="SourceAlpha" type="matrix" values="0 0 0 0 0 0 0 0 0 0 0 0 0 0 0 0 0 0 127 0" result="hardAlpha"/>
<feOffset dx="3" dy="3"/>
<feGaussianBlur stdDeviation="4"/>
<feComposite in2="hardAlpha" operator="arithmetic" k2="-1" k3="1"/>
<feColorMatrix type="matrix" values="0 0 0 0 0 0 0 0 0 0.372549 0 0 0 0 0.8 0 0 0 0.25 0"/>
<feBlend mode="normal" in2="effect1_innerShadow_0_4" result="effect2_innerShadow_0_4"/>
</filter>
<filter id="filter3_d_0_4" x="44" y="45" width="23" height="23" filterUnits="userSpaceOnUse" color-interpolation-filters="sRGB">
<feFlood flood-opacity="0" result="BackgroundImageFix"/>
<feColorMatrix in="SourceAlpha" type="matrix" values="0 0 0 0 0 0 0 0 0 0 0 0 0 0 0 0 0 0 127 0" result="hardAlpha"/>
<feOffset dy="4"/>
<feGaussianBlur stdDeviation="2"/>
<feComposite in2="hardAlpha" operator="out"/>
<feColorMatrix type="matrix" values="0 0 0 0 0 0 0 0 0 0 0 0 0 0 0 0 0 0 0.25 0"/>
<feBlend mode="normal" in2="BackgroundImageFix" result="effect1_dropShadow_0_4"/>
<feBlend mode="normal" in="SourceGraphic" in2="effect1_dropShadow_0_4" result="shape"/>
</filter>
<filter id="filter4_d_0_4" x="3" y="44.0223" width="23" height="22.9777" filterUnits="userSpaceOnUse" color-interpolation-filters="sRGB">
<feFlood flood-opacity="0" result="BackgroundImageFix"/>
<feColorMatrix in="SourceAlpha" type="matrix" values="0 0 0 0 0 0 0 0 0 0 0 0 0 0 0 0 0 0 127 0" result="hardAlpha"/>
<feOffset dy="4"/>
<feGaussianBlur stdDeviation="2"/>
<feComposite in2="hardAlpha" operator="out"/>
<feColorMatrix type="matrix" values="0 0 0 0 0 0 0 0 0 0 0 0 0 0 0 0 0 0 0.25 0"/>
<feBlend mode="normal" in2="BackgroundImageFix" result="effect1_dropShadow_0_4"/>
<feBlend mode="normal" in="SourceGraphic" in2="effect1_dropShadow_0_4" result="shape"/>
</filter>
<filter id="filter5_d_0_4" x="0" y="40.7096" width="25.828" height="17.884" filterUnits="userSpaceOnUse" color-interpolation-filters="sRGB">
<feFlood flood-opacity="0" result="BackgroundImageFix"/>
<feColorMatrix in="SourceAlpha" type="matrix" values="0 0 0 0 0 0 0 0 0 0 0 0 0 0 0 0 0 0 127 0" result="hardAlpha"/>
<feOffset dy="4"/>
<feGaussianBlur stdDeviation="2"/>
<feComposite in2="hardAlpha" operator="out"/>
<feColorMatrix type="matrix" values="0 0 0 0 0 0 0 0 0 0 0 0 0 0 0 0 0 0 0.25 0"/>
<feBlend mode="normal" in2="BackgroundImageFix" result="effect1_dropShadow_0_4"/>
<feBlend mode="normal" in="SourceGraphic" in2="effect1_dropShadow_0_4" result="shape"/>
</filter>
<filter id="filter6_d_0_4" x="50.5" y="42.4727" width="19" height="17.702" filterUnits="userSpaceOnUse" color-interpolation-filters="sRGB">
<feFlood flood-opacity="0" result="BackgroundImageFix"/>
<feColorMatrix in="SourceAlpha" type="matrix" values="0 0 0 0 0 0 0 0 0 0 0 0 0 0 0 0 0 0 127 0" result="hardAlpha"/>
<feOffset dy="4"/>
<feGaussianBlur stdDeviation="2"/>
<feComposite in2="hardAlpha" operator="out"/>
<feColorMatrix type="matrix" values="0 0 0 0 0 0 0 0 0 0 0 0 0 0 0 0 0 0 0.25 0"/>
<feBlend mode="normal" in2="BackgroundImageFix" result="effect1_dropShadow_0_4"/>
<feBlend mode="normal" in="SourceGraphic" in2="effect1_dropShadow_0_4" result="shape"/>
</filter>
<radialGradient id="paint0_radial_0_4" cx="0" cy="0" r="1" gradientUnits="userSpaceOnUse" gradientTransform="translate(28.5 1) rotate(105.255) scale(22.8035 26.4081)">
<stop stop-color="#4A4A4A"/>
<stop offset="0.373497" stop-color="#111111"/>
<stop offset="0.641044" stop-color="#444444"/>
<stop offset="1"/>
</radialGradient>
<radialGradient id="paint1_radial_0_4" cx="0" cy="0" r="1" gradientUnits="userSpaceOnUse" gradientTransform="translate(28.5 1) rotate(105.255) scale(22.8035 26.4081)">
<stop stop-color="#4A4A4A"/>
<stop offset="0.373497" stop-color="#111111"/>
<stop offset="0.641044" stop-color="#444444"/>
<stop offset="1"/>
</radialGradient>
<radialGradient id="paint2_radial_0_4" cx="0" cy="0" r="1" gradientUnits="userSpaceOnUse" gradientTransform="translate(12 27) rotate(65.9245) scale(25.7391 15.976)">
<stop stop-color="#B7E1FF"/>
<stop offset="0.5" stop-color="#0087FF"/>
<stop offset="1" stop-color="#0057B8"/>
</radialGradient>
<radialGradient id="paint3_radial_0_4" cx="0" cy="0" r="1" gradientTransform="matrix(9 15.5833 -16.5 9.47068 30.7895 30.4167)" gradientUnits="userSpaceOnUse">
<stop stop-color="#0073E6"/>
<stop offset="1" stop-color="#005FCC"/>
</radialGradient>
<radialGradient id="paint4_radial_0_4" cx="0" cy="0" r="1" gradientTransform="matrix(24.7581 25.9689 -26.6678 24.716 44.329 26.4903)" gradientUnits="userSpaceOnUse">
<stop stop-color="#A9D8FF"/>
<stop offset="0.5" stop-color="#0087FF"/>
<stop offset="0.740385" stop-color="#006BDB"/>
<stop offset="0.985577" stop-color="#005FCC"/>
</radialGradient>
<linearGradient id="paint5_linear_0_4" x1="48" y1="52.5" x2="63" y2="52.5" gradientUnits="userSpaceOnUse">
<stop stop-color="#3A3A3A"/>
<stop offset="0.514423" stop-color="#151515"/>
<stop offset="1"/>
</linearGradient>
<linearGradient id="paint6_linear_0_4" x1="11" y1="45.5" x2="17" y2="57.5" gradientUnits="userSpaceOnUse">
<stop stop-color="#3A3A3A"/>
<stop offset="0.514423" stop-color="#151515"/>
<stop offset="1"/>
</linearGradient>
<linearGradient id="paint7_linear_0_4" x1="14.5" y1="41" x2="14.5" y2="63" gradientUnits="userSpaceOnUse">
<stop stop-color="#3A3A3A"/>
<stop offset="0.5" stop-color="#151515"/>
<stop offset="1" stop-color="#666666"/>
</linearGradient>
<linearGradient id="paint8_linear_0_4" x1="59.972" y1="42" x2="59.972" y2="52.1747" gradientUnits="userSpaceOnUse">
<stop stop-color="#3A3A3A"/>
<stop offset="0.5" stop-color="#151515"/>
<stop offset="1" stop-color="#666666"/>
</linearGradient>
</defs>
</svg>
